<svg width="63" height="49" viewBox="0 0 63 49" fill="none" xmlns="http://www.w3.org/2000/svg">
<path d="M14.9796 22.5827C12.732 22.5903 10.5241 23.1763 8.56846 24.2842C11.3218 17.1575 15.8883 10.8733 21.8162 6.05345C22.1553 5.77414 22.4361 5.43076 22.6426 5.04292C22.8491 4.65507 22.9771 4.23036 23.0194 3.79304C23.0618 3.35571 23.0175 2.91433 22.8893 2.49409C22.761 2.07386 22.5512 1.683 22.2719 1.34384C21.9926 1.00467 21.6492 0.723842 21.2614 0.517384C20.8735 0.310925 20.4488 0.18288 20.0115 0.140558C19.5742 0.0982356 19.1328 0.142468 18.7126 0.270725C18.2923 0.398983 17.9015 0.608755 17.5623 0.888066C5.40846 10.7631 0 24.4361 0 32.9135C0.0209412 35.9109 0.914182 38.8373 2.57066 41.3355C4.22714 43.8337 6.57517 45.7956 9.32808 46.9815C11.1097 47.8446 13.0608 48.3012 15.0404 48.3185C16.7828 48.4031 18.5243 48.1331 20.1593 47.5246C21.7942 46.9162 23.2885 45.982 24.5517 44.7788C25.8148 43.5756 26.8204 42.1283 27.5075 40.5249C28.1946 38.9214 28.5489 37.1951 28.5489 35.4506C28.5489 33.7061 28.1946 31.9797 27.5075 30.3763C26.8204 28.7728 25.8148 27.3256 24.5517 26.1223C23.2885 24.9191 21.7942 23.9849 20.1593 23.3765C18.5243 22.768 16.7828 22.498 15.0404 22.5827H14.9796Z" fill="#D0D9F8"/>
<path d="M48.8281 22.5829C46.58 22.5877 44.3715 23.1739 42.4169 24.2844C45.1691 17.1652 49.7237 10.8831 55.6342 6.05366C56.0042 5.787 56.3156 5.44745 56.5494 5.05591C56.7833 4.66437 56.9345 4.22913 56.9938 3.77696C57.0531 3.3248 57.0192 2.86527 56.8943 2.42668C56.7694 1.98809 56.556 1.57971 56.2673 1.22666C55.9787 0.873614 55.6208 0.583375 55.2158 0.373809C54.8107 0.164242 54.3671 0.0397818 53.9122 0.00808388C53.4572 -0.023614 53.0006 0.038122 52.5704 0.189495C52.1403 0.340867 51.7456 0.578672 51.4108 0.888275C39.2569 10.7633 33.8484 24.4364 33.8484 32.9137C33.8628 35.8771 34.73 38.7738 36.3464 41.2577C37.9628 43.7416 40.2601 45.7076 42.9638 46.921C44.7906 47.8093 46.7968 48.2667 48.8281 48.2579C50.5705 48.3426 52.312 48.0725 53.9469 47.4641C55.5819 46.8556 57.0762 45.9215 58.3394 44.7182C59.6025 43.515 60.6081 42.0678 61.2952 40.4643C61.9823 38.8608 62.3366 37.1345 62.3366 35.39C62.3366 33.6455 61.9823 31.9192 61.2952 30.3157C60.6081 28.7122 59.6025 27.265 58.3394 26.0618C57.0762 24.8585 55.5819 23.9244 53.9469 23.3159C52.312 22.7075 50.5705 22.4374 48.8281 22.5221V22.5829Z" fill="#D0D9F8"/>
</svg>
