<svg width="14" height="14" viewBox="0 0 14 14" fill="none" xmlns="http://www.w3.org/2000/svg">
<path d="M11.1989 13.067H0.933238V2.8014H7.10194L8.03518 1.86816H0.933238C0.685728 1.86816 0.448355 1.96649 0.273339 2.1415C0.0983229 2.31652 0 2.55389 0 2.8014V13.067C0 13.3145 0.0983229 13.5519 0.273339 13.7269C0.448355 13.9019 0.685728 14.0003 0.933238 14.0003H11.1989C11.4464 14.0003 11.6837 13.9019 11.8588 13.7269C12.0338 13.5519 12.1321 13.3145 12.1321 13.067V6.06773L11.1989 7.00097V13.067Z" fill="#0C4CA1"/>
<path d="M13.7792 1.79327L12.2067 0.220766C12.1369 0.150787 12.054 0.0952659 11.9628 0.0573829C11.8715 0.0195 11.7736 0 11.6748 0C11.576 0 11.4781 0.0195 11.3868 0.0573829C11.2955 0.0952659 11.2126 0.150787 11.1428 0.220766L4.74549 6.65544L4.22755 8.89988C4.20548 9.00867 4.2078 9.12101 4.23434 9.2288C4.26088 9.33659 4.31097 9.43716 4.38103 9.52328C4.45108 9.6094 4.53935 9.67892 4.63948 9.72684C4.73962 9.77477 4.84913 9.79991 4.96014 9.80045C5.01751 9.80677 5.07541 9.80677 5.13279 9.80045L7.39589 9.30117L13.7792 2.85716C13.8492 2.78738 13.9047 2.70447 13.9426 2.61319C13.9805 2.5219 14 2.42405 14 2.32522C14 2.22639 13.9805 2.12853 13.9426 2.03725C13.9047 1.94597 13.8492 1.86306 13.7792 1.79327ZM6.9106 8.43792L5.20278 8.81588L5.5994 7.12206L10.4149 2.27389L11.7308 3.58975L6.9106 8.43792ZM12.2581 3.06247L10.9422 1.74661L11.6654 1.00935L12.9906 2.33455L12.2581 3.06247Z" fill="#0C4CA1"/>
</svg>
