<svg width="21" height="21" viewBox="0 0 21 21" fill="none" xmlns="http://www.w3.org/2000/svg">
<path d="M11.375 4.11556C11.375 2.49068 9.35375 1.74343 8.29587 2.97718L5.11 6.69418C5.02785 6.79023 4.92587 6.86733 4.81107 6.9202C4.69627 6.97307 4.57139 7.00044 4.445 7.00043H4.375C3.67881 7.00043 3.01113 7.27699 2.51884 7.76927C2.02656 8.26156 1.75 8.92924 1.75 9.62543V11.3754C1.75 12.0716 2.02656 12.7393 2.51884 13.2316C3.01113 13.7239 3.67881 14.0004 4.375 14.0004H4.445C4.57139 14.0004 4.69627 14.0278 4.81107 14.0807C4.92587 14.1335 5.02785 14.2106 5.11 14.3067L8.29587 18.0237C9.35375 19.2574 11.375 18.5102 11.375 16.8853V4.11556ZM6.43825 7.8343L9.625 4.11468V16.8844L6.43825 13.1657C6.19166 12.8784 5.88585 12.6479 5.5418 12.4899C5.19774 12.3319 4.82359 12.2502 4.445 12.2504H4.375C4.14294 12.2504 3.92038 12.1582 3.75628 11.9941C3.59219 11.8301 3.5 11.6075 3.5 11.3754V9.62543C3.5 9.39337 3.59219 9.17081 3.75628 9.00671C3.92038 8.84262 4.14294 8.75043 4.375 8.75043H4.445C4.82373 8.75042 5.19796 8.66846 5.54203 8.51017C5.88609 8.35188 6.19183 8.12102 6.43825 7.83343V7.8343ZM16.3065 3.74106C16.2237 3.65944 16.1254 3.59515 16.0175 3.55194C15.9096 3.50873 15.7941 3.48747 15.6778 3.4894C15.5616 3.49132 15.4469 3.5164 15.3404 3.56316C15.234 3.60992 15.1379 3.67742 15.0578 3.76173C14.9778 3.84604 14.9153 3.94547 14.8741 4.05419C14.8329 4.16291 14.8138 4.27876 14.8179 4.39496C14.8219 4.51116 14.8491 4.62538 14.8978 4.73095C14.9466 4.83651 15.0158 4.93131 15.1016 5.00981C18.2997 8.0478 18.2997 12.9531 15.1016 15.9911C14.9383 16.152 14.8447 16.3706 14.8409 16.5998C14.8371 16.829 14.9235 17.0506 15.0813 17.2168C15.2392 17.3831 15.456 17.4807 15.6851 17.4887C15.9142 17.4968 16.1374 17.4146 16.3065 17.2598C20.2309 13.5323 20.2309 7.46856 16.3065 3.74106ZM13.7279 6.19105C13.5596 6.03116 13.3348 5.94465 13.1027 5.95056C12.8707 5.95647 12.6505 6.05431 12.4906 6.22256C12.3307 6.3908 12.2442 6.61567 12.2501 6.8477C12.256 7.07973 12.3539 7.29991 12.5221 7.4598C14.2957 9.14418 14.2957 11.8567 12.5221 13.5411C12.3539 13.7009 12.256 13.9211 12.2501 14.1532C12.2442 14.3852 12.3307 14.6101 12.4906 14.7783C12.6505 14.9466 12.8707 15.0444 13.1027 15.0503C13.3348 15.0562 13.5596 14.9697 13.7279 14.8098C16.2277 12.4351 16.2277 8.5658 13.7279 6.19105Z" fill="#0C4CA1"/>
</svg>
