<svg width="16" height="16" viewBox="0 0 16 16" fill="none" xmlns="http://www.w3.org/2000/svg">
<path d="M15.1111 7.45779C15.2763 7.33474 15.3988 7.16307 15.4615 6.96686C15.5242 6.77065 15.5239 6.55974 15.4607 6.36371C15.3975 6.16767 15.2745 5.99633 15.109 5.87372C14.9435 5.75111 14.7437 5.68338 14.5378 5.68001L10.5378 5.5289C10.5181 5.52754 10.4993 5.52053 10.4835 5.5087C10.4677 5.49687 10.4557 5.48073 10.4489 5.46223L9.06668 1.7289C8.99723 1.53896 8.87109 1.37495 8.70535 1.25908C8.5396 1.1432 8.34225 1.08105 8.14001 1.08105C7.93778 1.08105 7.74042 1.1432 7.57468 1.25908C7.40893 1.37495 7.28279 1.53896 7.21334 1.7289L5.83557 5.47557C5.82876 5.49407 5.81674 5.5102 5.80097 5.52203C5.7852 5.53386 5.76634 5.54088 5.74668 5.54223L1.74668 5.69335C1.54072 5.69671 1.34099 5.76444 1.17547 5.88705C1.00996 6.00967 0.886971 6.181 0.823748 6.37704C0.760526 6.57308 0.760242 6.78399 0.822937 6.98019C0.885632 7.1764 1.00816 7.34807 1.17334 7.47112L4.31112 9.93779C4.32683 9.95015 4.33856 9.96684 4.34488 9.9858C4.3512 10.0048 4.35183 10.0251 4.34668 10.0445L3.26668 13.8711C3.21071 14.066 3.21613 14.2734 3.28221 14.465C3.34828 14.6567 3.47179 14.8234 3.63594 14.9424C3.8001 15.0613 3.99692 15.1269 4.19963 15.13C4.40235 15.1332 4.60112 15.0738 4.7689 14.96L8.08446 12.7378C8.10079 12.7265 8.12016 12.7205 8.14001 12.7205C8.15986 12.7205 8.17923 12.7265 8.19557 12.7378L11.5111 14.96C11.6766 15.0777 11.8747 15.141 12.0778 15.141C12.2809 15.141 12.4789 15.0777 12.6445 14.96C12.8086 14.8421 12.9323 14.6763 12.9983 14.4853C13.0644 14.2943 13.0696 14.0875 13.0133 13.8933L11.9245 10.0533C11.9187 10.0341 11.919 10.0135 11.9254 9.99439C11.9317 9.9753 11.9438 9.95864 11.96 9.94668L15.1111 7.45779Z" fill="#D1D1D1"/>
</svg>
