<svg width="13" height="13" viewBox="0 0 13 13" fill="none" xmlns="http://www.w3.org/2000/svg">
<path d="M7.94 6.00017L12.8 1.14017C12.9092 1.01264 12.9663 0.848589 12.9598 0.680805C12.9533 0.513021 12.8838 0.353862 12.765 0.235132C12.6463 0.116403 12.4872 0.0468473 12.3194 0.0403665C12.1516 0.0338857 11.9875 0.0909568 11.86 0.200174L7 5.06017L2.14 0.193508C2.01247 0.0842899 1.84842 0.0272195 1.68063 0.0337003C1.51285 0.0401811 1.35369 0.109736 1.23496 0.228465C1.11623 0.347195 1.04667 0.506354 1.04019 0.674138C1.03371 0.841923 1.09078 1.00597 1.2 1.13351L6.06 6.00017L1.19333 10.8602C1.12355 10.9199 1.06687 10.9935 1.02685 11.0762C0.986834 11.1589 0.964347 11.249 0.960801 11.3408C0.957255 11.4326 0.972725 11.5242 1.00624 11.6097C1.03976 11.6953 1.0906 11.773 1.15557 11.8379C1.22054 11.9029 1.29823 11.9538 1.38378 11.9873C1.46933 12.0208 1.56089 12.0363 1.6527 12.0327C1.74452 12.0292 1.8346 12.0067 1.91731 11.9667C2.00002 11.9266 2.07357 11.87 2.13333 11.8002L7 6.94018L11.86 11.8002C11.9875 11.9094 12.1516 11.9665 12.3194 11.96C12.4872 11.9535 12.6463 11.8839 12.765 11.7652C12.8838 11.6465 12.9533 11.4873 12.9598 11.3195C12.9663 11.1518 12.9092 10.9877 12.8 10.8602L7.94 6.00017Z" fill="#C95F35"/>
</svg>
