<svg width="5" height="10" viewBox="0 0 5 10" fill="none" xmlns="http://www.w3.org/2000/svg">
<path d="M1.44332 1.15761C1.7507 1.44722 4.75389 4.4903 4.75389 4.4903C4.83173 4.5628 4.89364 4.6497 4.93592 4.7458C4.97821 4.8419 5 4.94524 5 5.04966C5 5.15407 4.97821 5.25741 4.93592 5.35351C4.89364 5.44962 4.83173 5.53651 4.75389 5.60901C4.75389 5.60901 1.7507 8.65351 1.44332 8.94171C1.13594 9.23132 0.582952 9.2512 0.255719 8.94171C-0.0722496 8.63364 -0.097987 8.20277 0.255719 7.82442L3.0111 5.05037L0.255719 2.27631C-0.097987 1.89797 -0.0722496 1.46639 0.255719 1.15761C0.582952 0.848115 1.13594 0.867281 1.44332 1.15761Z" fill="#B0B0B0"/>
</svg>
