<svg width="28" height="30" viewBox="0 0 28 30" fill="none" xmlns="http://www.w3.org/2000/svg">
<path d="M25.8125 5.625H21V2.34375H19.25V5.625H8.75V2.34375H7V5.625H2.1875C1.83953 5.62543 1.50592 5.77373 1.25987 6.03736C1.01382 6.30099 0.875405 6.65842 0.875 7.03125V26.7188C0.875405 27.0916 1.01382 27.449 1.25987 27.7126C1.50592 27.9763 1.83953 28.1246 2.1875 28.125H25.8125C26.1605 28.1246 26.4941 27.9763 26.7401 27.7126C26.9862 27.449 27.1246 27.0916 27.125 26.7188V7.03125C27.1246 6.65842 26.9862 6.30099 26.7401 6.03736C26.4941 5.77373 26.1605 5.62543 25.8125 5.625ZM25.375 26.25H2.625V7.5H7V9.84375H8.75V7.5H19.25V9.84375H21V7.5H25.375V26.25Z" fill="#0C4CA1"/>
<path d="M6.125 13.125H7.875V15H6.125V13.125Z" fill="#0C4CA1"/>
<path d="M10.9375 13.125H12.6875V15H10.9375V13.125Z" fill="#0C4CA1"/>
<path d="M15.3125 13.125H17.0625V15H15.3125V13.125Z" fill="#0C4CA1"/>
<path d="M20.125 13.125H21.875V15H20.125V13.125Z" fill="#0C4CA1"/>
<path d="M6.125 17.3438H7.875V19.2188H6.125V17.3438Z" fill="#0C4CA1"/>
<path d="M10.9375 17.3438H12.6875V19.2188H10.9375V17.3438Z" fill="#0C4CA1"/>
<path d="M15.3125 17.3438H17.0625V19.2188H15.3125V17.3438Z" fill="#0C4CA1"/>
<path d="M20.125 17.3438H21.875V19.2188H20.125V17.3438Z" fill="#0C4CA1"/>
<path d="M6.125 21.5625H7.875V23.4375H6.125V21.5625Z" fill="#0C4CA1"/>
<path d="M10.9375 21.5625H12.6875V23.4375H10.9375V21.5625Z" fill="#0C4CA1"/>
<path d="M15.3125 21.5625H17.0625V23.4375H15.3125V21.5625Z" fill="#0C4CA1"/>
<path d="M20.125 21.5625H21.875V23.4375H20.125V21.5625Z" fill="#0C4CA1"/>
</svg>
