<svg width="14" height="14" viewBox="0 0 14 14" fill="none" xmlns="http://www.w3.org/2000/svg">
<path d="M11.9875 6.43125L9.31875 3.7625C9.1875 3.5875 8.96875 3.5 8.75 3.5H5.25C4.76875 3.5 4.375 3.89375 4.375 4.375V12.25C4.375 12.7313 4.76875 13.125 5.25 13.125H11.375C11.8563 13.125 12.25 12.7313 12.25 12.25V7.04375C12.25 6.825 12.1625 6.60625 11.9875 6.43125V6.43125ZM8.75 4.375L11.3312 7H8.75V4.375ZM5.25 12.25V4.375H7.875V7C7.875 7.48125 8.26875 7.875 8.75 7.875H11.375V12.25H5.25Z" fill="#0C4CA1"/>
<path d="M2.625 7.875H1.75V1.75C1.75 1.26875 2.14375 0.875 2.625 0.875H8.75V1.75H2.625V7.875Z" fill="#0C4CA1"/>
</svg>
